<?xml version="1.0" encoding="UTF-8"?>
<svg version="1.1" xmlns="http://www.w3.org/2000/svg" width="819" height="819">
<path d="M0 0 C270.27 0 540.54 0 819 0 C819 270.27 819 540.54 819 819 C548.73 819 278.46 819 0 819 C0 548.73 0 278.46 0 0 Z " fill="#0D1825" transform="translate(0,0)"/>
<path d="M0 0 C12.73948555 10.18379671 21.37413088 23.66535595 24.40136719 39.79980469 C26.04115535 57.33084182 23.07568041 74.40016864 12.22558594 88.65917969 C10.03929952 91.15131965 7.78002252 93.49159733 5.40136719 95.79980469 C4.76457031 96.445625 4.12777344 97.09144531 3.47167969 97.75683594 C-3.35267624 104.25554833 -11.33768155 108.25631281 -20.59863281 109.79980469 C-20.59863281 119.69980469 -20.59863281 129.59980469 -20.59863281 139.79980469 C-12.73092437 139.81767424 -4.86913095 139.81446245 2.99755859 139.75708008 C5.67332314 139.74004732 8.3469066 139.74319347 11.02294922 139.75512695 C14.8713529 139.77013187 18.71723276 139.74046371 22.56542969 139.70214844 C23.75939362 139.71640366 24.95335754 139.73065887 26.1835022 139.74534607 C32.19605596 139.78228105 32.19605596 139.78228105 37.43231201 137.24954224 C39.04703073 135.42246925 39.04703073 135.42246925 40.27157593 133.48854065 C42.16552345 130.65759531 44.21831254 129.84041871 47.40136719 128.79980469 C54.2059962 127.88335634 59.79077951 128.72619314 65.40136719 132.79980469 C68.88210455 136.11226212 72.00009259 140.02736201 72.70214844 144.87792969 C72.73725988 151.38524955 72.09334135 156.90032418 67.52636719 161.81933594 C61.62675613 167.14416871 57.41053465 168.1919042 49.49511719 168.16308594 C44.58668079 167.58671651 40.87012674 165.26856424 37.40136719 161.79980469 C35.62233361 161.67657711 33.83850516 161.6219145 32.05541992 161.59448242 C30.91431259 161.5745372 29.77320526 161.55459198 28.59751892 161.53404236 C27.35587479 161.51732986 26.11423065 161.50061737 24.83496094 161.48339844 C22.93932152 161.45222679 22.93932152 161.45222679 21.00538635 161.42042542 C17.64018085 161.36596754 14.27496546 161.31576189 10.90966797 161.26757812 C7.47780818 161.2174071 4.04603888 161.16169814 0.61425781 161.10644531 C-6.12330042 160.99910278 -12.86092617 160.89736144 -19.59863281 160.79980469 C-19.51437707 181.68974176 -19.41911623 202.5796036 -19.31110573 223.46943188 C-19.26119413 233.1710932 -19.21475069 242.87274697 -19.17675781 252.57446289 C-19.143596 261.04021084 -19.10363566 269.50589617 -19.05584276 277.9715746 C-19.03081544 282.44522574 -19.00896718 286.91883664 -18.99528885 291.39253807 C-20.81532815 334.81788992 -20.81532815 334.81788992 -3.60253906 373.00683594 C7.33706099 383.51743207 18.90325627 385.21048783 33.35449219 385.00292969 C49.45011936 384.51662113 64.68473689 376.5966995 76.40136719 365.79980469 C77.21863281 365.06246094 78.03589844 364.32511719 78.87792969 363.56542969 C89.72579315 353.2885064 97.31155012 340.83080925 104.40136719 327.79980469 C102.76167969 327.84621094 102.76167969 327.84621094 101.08886719 327.89355469 C95.78220633 327.89355469 90.63708388 327.10141097 85.40136719 326.29980469 C84.43585938 326.15671875 83.47035156 326.01363281 82.47558594 325.86621094 C80.11669383 325.51588043 77.75872174 325.16031119 75.40136719 324.79980469 C79.20833819 320.89208209 83.20091005 317.29019947 87.33886719 313.73730469 C87.99564453 313.17003662 88.65242188 312.60276855 89.32910156 312.01831055 C92.52997169 309.25667775 95.74096545 306.50764578 98.96777344 303.77636719 C112.74966511 292.09583805 125.71819501 279.65886061 138.40136719 266.79980469 C139.06136719 267.12980469 139.72136719 267.45980469 140.40136719 267.79980469 C141.21777344 270.64355469 141.21777344 270.64355469 141.96386719 274.29980469 C142.33705078 276.07871094 142.33705078 276.07871094 142.71777344 277.89355469 C146.82344338 301.35452578 145.93671751 328.41948811 137.40136719 350.79980469 C137.1701416 351.42886719 136.93891602 352.05792969 136.70068359 352.70605469 C131.93343222 365.64262724 131.93343222 365.64262724 127.40136719 370.79980469 C126.78648437 369.11951172 126.78648437 369.11951172 126.15917969 367.40527344 C125.61511318 365.93254169 125.07083107 364.45988957 124.52636719 362.98730469 C124.25695312 362.24931641 123.98753906 361.51132812 123.70996094 360.75097656 C123.44570313 360.03876953 123.18144531 359.3265625 122.90917969 358.59277344 C122.54783936 357.61087036 122.54783936 357.61087036 122.17919922 356.60913086 C121.3461055 354.52084531 121.3461055 354.52084531 119.40136719 351.79980469 C119.10069336 352.321875 118.80001953 352.84394531 118.49023438 353.38183594 C97.57963154 389.48147076 71.86814802 414.37702191 35.17089844 434.08496094 C26.15109004 438.94248972 17.503433 444.19651077 8.96386719 449.86230469 C7.981521 450.51086426 6.9991748 451.15942383 5.98706055 451.82763672 C-3.16167427 457.97515435 -11.6535174 464.86689243 -19.78613281 472.29980469 C-20.28604736 472.75266846 -20.78596191 473.20553223 -21.30102539 473.67211914 C-24.44943736 476.5731595 -27.13394859 479.63523852 -29.78613281 482.98730469 C-32.28144975 485.80030058 -34.07534145 487.54704781 -37.84863281 488.17480469 C-44.02626118 487.52008168 -47.58831391 481.87543032 -51.36425781 477.45605469 C-59.84572579 467.61464509 -70.73405395 459.78515592 -81.59863281 452.79980469 C-82.32872559 452.32994141 -83.05881836 451.86007812 -83.81103516 451.37597656 C-94.19139267 444.74237531 -104.76209327 438.52129005 -115.53613281 432.54980469 C-150.25359654 413.28243874 -177.95041903 388.97589399 -195.59863281 352.79980469 C-200.44020111 361.97414474 -200.44020111 361.97414474 -203.59863281 371.79980469 C-208.02175711 367.1348695 -209.91363391 361.6421831 -212.16113281 355.73730469 C-212.55880859 354.70395996 -212.95648438 353.67061523 -213.36621094 352.60595703 C-218.96418931 337.82626955 -220.78565035 324.11742635 -220.78393555 308.36352539 C-220.78611124 306.13440528 -220.8042916 303.90579013 -220.82324219 301.67675781 C-220.86975674 289.77397963 -219.82354504 278.31734837 -216.59863281 266.79980469 C-212.60778193 268.39815108 -209.96336204 271.19587414 -207.02050781 274.21777344 C-206.49023987 274.75324295 -205.95997192 275.28871246 -205.41363525 275.84040833 C-203.72046226 277.55134221 -202.03411073 279.26879237 -200.34863281 280.98730469 C-190.28841528 291.22715597 -190.28841528 291.22715597 -179.59863281 300.79980469 C-178.44520511 301.7959468 -177.29284041 302.79332123 -176.14160156 303.79199219 C-175.02373229 304.75365123 -173.90523485 305.71458052 -172.78613281 306.67480469 C-172.19082764 307.1858374 -171.59552246 307.69687012 -170.98217773 308.22338867 C-166.31809713 312.2137895 -161.58701481 316.11050763 -156.80566406 319.95996094 C-154.96008712 321.49848614 -153.25755971 323.0652264 -151.59863281 324.79980469 C-160.22401429 326.46039215 -168.57982622 327.8627634 -177.37988281 327.82324219 C-178.85038086 327.8181665 -178.85038086 327.8181665 -180.35058594 327.81298828 C-181.09244141 327.8086377 -181.83429688 327.80428711 -182.59863281 327.79980469 C-176.15951985 338.34145409 -169.77443346 348.50700661 -161.59863281 357.79980469 C-160.99148438 358.56164062 -160.38433594 359.32347656 -159.75878906 360.10839844 C-151.71013472 369.92673576 -140.52151037 377.51175223 -128.59863281 381.79980469 C-127.73753906 382.11691406 -126.87644531 382.43402344 -125.98925781 382.76074219 C-114.17211375 386.39935434 -98.25986651 387.13697448 -86.82128906 382.00683594 C-74.45162132 375.28938896 -66.41407622 367.77100954 -62.28613281 353.86230469 C-57.80138202 336.22995115 -57.44467688 318.40414434 -57.07128906 300.31933594 C-57.05087114 299.3742045 -57.03045322 298.42907307 -57.00941658 297.45530128 C-56.44176827 270.86281399 -56.2731105 244.26464237 -56.08122313 217.66735661 C-56.02564056 209.98296652 -55.96540336 202.29861342 -55.90527344 194.61425781 C-55.79883529 181.00946917 -55.69899812 167.40464248 -55.59863281 153.79980469 C-74.40863281 153.79980469 -93.21863281 153.79980469 -112.59863281 153.79980469 C-113.25863281 155.44980469 -113.91863281 157.09980469 -114.59863281 158.79980469 C-117.7713181 163.87610115 -122.02527829 166.80700641 -127.59863281 168.79980469 C-135.53447161 170.12905769 -141.83056301 169.22152401 -148.50097656 164.65527344 C-153.01944854 160.65848724 -156.23765965 155.46279468 -156.83691406 149.38183594 C-157.00988345 142.92734684 -156.60697177 138.01700777 -152.59863281 132.79980469 C-146.8124654 126.82563906 -142.88647134 123.67608714 -134.41113281 123.48730469 C-127.44454551 123.56471121 -122.94867959 124.6995421 -117.81738281 129.44824219 C-114.45020565 133.08542884 -113.62520541 134.66694171 -112.59863281 139.79980469 C-93.78863281 139.79980469 -74.97863281 139.79980469 -55.59863281 139.79980469 C-55.92863281 130.22980469 -56.25863281 120.65980469 -56.59863281 110.79980469 C-60.55863281 109.14980469 -64.51863281 107.49980469 -68.59863281 105.79980469 C-71.80575553 103.87553106 -74.65828724 102.05050557 -77.59863281 99.79980469 C-78.34886719 99.22617187 -79.09910156 98.65253906 -79.87207031 98.06152344 C-91.04020053 88.85639222 -98.87086329 75.25490618 -100.59863281 60.79980469 C-101.89602576 40.83425533 -99.5938499 24.30884228 -85.97363281 8.73730469 C-63.78626067 -15.44892981 -26.85041963 -20.15831749 0 0 Z " fill="#04619D" transform="translate(446.5986328125,159.2001953125)"/>
<path d="M0 0 C0.33 0 0.66 0 1 0 C1 128.37 1 256.74 1 389 C-127.37 389 -255.74 389 -388 389 C-388 388.67 -388 388.34 -388 388 C-386.8847998 387.91024902 -385.76959961 387.82049805 -384.62060547 387.72802734 C-361.3634178 385.82523797 -338.75950055 383.30492695 -316 378 C-314.2227576 377.60631302 -312.44542148 377.21304878 -310.66796875 376.8203125 C-253.07117687 363.66299011 -197.73877261 335.07612628 -152 298 C-151.0615625 297.25492188 -150.123125 296.50984375 -149.15625 295.7421875 C-142.35550974 290.28986987 -135.97729643 284.4533477 -129.61865234 278.50097656 C-128.05830155 277.05406304 -126.48124003 275.62884747 -124.89453125 274.2109375 C-117.79494687 267.85212969 -111.34203945 261.10960852 -105 254 C-104.24074219 253.17886719 -103.48148438 252.35773438 -102.69921875 251.51171875 C-96.3845712 244.65869983 -90.63984928 237.40809532 -85 230 C-84.45150391 229.28134766 -83.90300781 228.56269531 -83.33789062 227.82226562 C-74.56285979 216.27095385 -66.47321974 204.43292413 -59 192 C-58.51321777 191.19401367 -58.02643555 190.38802734 -57.52490234 189.55761719 C-43.4993767 166.1647965 -32.45792818 141.53848393 -23 116 C-22.56631104 114.83339844 -22.13262207 113.66679688 -21.68579102 112.46484375 C-19.05355342 105.25802996 -16.7920681 98.06810455 -14.9375 90.625 C-14.68564941 89.63387207 -14.43379883 88.64274414 -14.17431641 87.62158203 C-13.67351742 85.64750603 -13.17537289 83.6727543 -12.68017578 81.69726562 C-12.09124363 79.36183043 -11.48670792 77.03163118 -10.87109375 74.703125 C-5.38839408 53.63235766 -2.86418865 32.64648418 -1 11 C-0.67044629 7.33298534 -0.33603361 3.66642607 0 0 Z " fill="#FEFEFE" transform="translate(818,430)"/>
<path d="M0 0 C0.33 0 0.66 0 1 0 C1.04487549 0.76852295 1.08975098 1.5370459 1.13598633 2.32885742 C6.65955906 94.64749952 40.16816123 181.63921269 100.75 251.9375 C101.26884766 252.54037842 101.78769531 253.14325684 102.32226562 253.7644043 C105.53901068 257.45374929 108.89109058 260.95167662 112.39550781 264.36914062 C114.03031902 266.03081726 115.51792721 267.76425856 117 269.5625 C131.32516497 286.13097939 149.4774558 300.01114901 167 313 C167.66306152 313.49467773 168.32612305 313.98935547 169.00927734 314.49902344 C209.83149052 344.77440274 257.94937399 367.49285013 307.35644531 379.35302734 C309.9121026 379.97848835 312.45207092 380.64645127 314.9921875 381.33203125 C338.28327851 387.55896131 362.05243568 389.92777531 386 392 C386 392.33 386 392.66 386 393 C258.62 393 131.24 393 0 393 C0 263.31 0 133.62 0 0 Z " fill="#FEFEFE" transform="translate(0,426)"/>
<path d="M0 0 C127.38 0 254.76 0 386 0 C386 127.38 386 254.76 386 386 C385.67 386 385.34 386 385 386 C384.89510254 384.78775757 384.89510254 384.78775757 384.78808594 383.55102539 C377.348358 298.95701284 348.88918111 219.48011127 295 153 C294.25492188 152.0615625 293.50984375 151.123125 292.7421875 150.15625 C287.28986987 143.35550974 281.4533477 136.97729643 275.50097656 130.61865234 C274.05406304 129.05830155 272.62884747 127.48124003 271.2109375 125.89453125 C264.85212969 118.79494687 258.10960852 112.34203945 251 106 C250.17886719 105.24074219 249.35773438 104.48148437 248.51171875 103.69921875 C241.65869983 97.3845712 234.40809532 91.63984928 227 86 C225.92202148 85.17725586 225.92202148 85.17725586 224.82226562 84.33789062 C213.27095385 75.56285979 201.43292413 67.47321974 189 60 C188.19401367 59.51321777 187.38802734 59.02643555 186.55761719 58.52490234 C163.1647965 44.4993767 138.53848393 33.45792818 113 24 C111.83339844 23.56631104 110.66679688 23.13262207 109.46484375 22.68579102 C102.25802996 20.05355342 95.06810455 17.7920681 87.625 15.9375 C86.63387207 15.68564941 85.64274414 15.43379883 84.62158203 15.17431641 C82.64750603 14.67351742 80.6727543 14.17537289 78.69726562 13.68017578 C76.36183043 13.09124363 74.03163118 12.48670792 71.703125 11.87109375 C67.81392428 10.85910785 63.91509828 9.90530151 60 9 C59.3105127 8.83790039 58.62102539 8.67580078 57.91064453 8.50878906 C38.90740505 4.15767911 19.37143722 2.81202105 0 1 C0 0.67 0 0.34 0 0 Z " fill="#FEFEFE" transform="translate(433,0)"/>
<path d="M0 0 C127.38 0 254.76 0 386 0 C386 0.33 386 0.66 386 1 C384.94949463 1.09498779 383.89898926 1.18997559 382.81665039 1.2878418 C362.29498229 3.16596326 342.09119274 5.25010935 322 10 C320.91847656 10.24588867 319.83695312 10.49177734 318.72265625 10.74511719 C257.97025555 24.61100016 201.43422733 51.73892179 153 91 C152.0615625 91.74507813 151.123125 92.49015625 150.15625 93.2578125 C143.93987765 98.24162826 138.06656895 103.52716316 132.25390625 108.96875 C130.17918135 110.9109932 128.08681254 112.82825615 125.96484375 114.71875 C115.56344922 124.03752243 106.07666529 134.14518388 97.35546875 145.05859375 C95.60894358 147.23957791 93.84377033 149.39306939 92.05078125 151.53515625 C36.50419578 218.20637966 8.4008618 300.47229873 1 386 C0.67 386 0.34 386 0 386 C0 258.62 0 131.24 0 0 Z " fill="#FEFEFE" transform="translate(0,0)"/>
<path d="M0 0 C12.73948555 10.18379671 21.37413088 23.66535595 24.40136719 39.79980469 C26.04115535 57.33084182 23.07568041 74.40016864 12.22558594 88.65917969 C10.03929952 91.15131965 7.78002252 93.49159733 5.40136719 95.79980469 C4.76457031 96.445625 4.12777344 97.09144531 3.47167969 97.75683594 C-3.35267624 104.25554833 -11.33768155 108.25631281 -20.59863281 109.79980469 C-20.59863281 119.69980469 -20.59863281 129.59980469 -20.59863281 139.79980469 C-20.92863281 139.79980469 -21.25863281 139.79980469 -21.59863281 139.79980469 C-21.79640517 136.40448829 -21.98002966 133.00854777 -22.16113281 129.61230469 C-22.21720703 128.65259766 -22.27328125 127.69289063 -22.33105469 126.70410156 C-22.40356445 125.30708008 -22.40356445 125.30708008 -22.47753906 123.88183594 C-22.52467041 123.02823486 -22.57180176 122.17463379 -22.62036133 121.29516602 C-22.5975571 118.67626711 -22.19076487 116.34577317 -21.59863281 113.79980469 C-22.8972222 114.36756005 -24.18733722 114.95472132 -25.47363281 115.54980469 C-26.19292969 115.87464844 -26.91222656 116.19949219 -27.65332031 116.53417969 C-29.96803246 118.04013699 -30.57216096 119.27310476 -31.59863281 121.79980469 C-32.26529948 123.13313802 -32.93196615 124.46647135 -33.59863281 125.79980469 C-35.26529948 125.79980469 -36.93196615 125.79980469 -38.59863281 125.79980469 C-35.41681463 119.2088956 -35.41681463 119.2088956 -32.59863281 117.79980469 C-31.87703857 116.15617335 -31.20511861 114.48930083 -30.59863281 112.79980469 C-29.60863281 112.79980469 -28.61863281 112.79980469 -27.59863281 112.79980469 C-27.92863281 111.14980469 -28.25863281 109.49980469 -28.59863281 107.79980469 C-30.57863281 107.30480469 -30.57863281 107.30480469 -32.59863281 106.79980469 C-32.66050781 106.01605469 -32.72238281 105.23230469 -32.78613281 104.42480469 C-33.18832031 103.12542969 -33.18832031 103.12542969 -33.59863281 101.79980469 C-36.07499293 100.42513843 -36.07499293 100.42513843 -38.59863281 99.79980469 C-38.26863281 99.13980469 -37.93863281 98.47980469 -37.59863281 97.79980469 C-36.27863281 97.79980469 -34.95863281 97.79980469 -33.59863281 97.79980469 C-33.10363281 95.81980469 -33.10363281 95.81980469 -32.59863281 93.79980469 C-30.61863281 94.29480469 -30.61863281 94.29480469 -28.59863281 94.79980469 C-28.59863281 93.14980469 -28.59863281 91.49980469 -28.59863281 89.79980469 C-29.58863281 89.79980469 -30.57863281 89.79980469 -31.59863281 89.79980469 C-31.59863281 89.13980469 -31.59863281 88.47980469 -31.59863281 87.79980469 C-33.08363281 88.29480469 -33.08363281 88.29480469 -34.59863281 88.79980469 C-34.59863281 88.13980469 -34.59863281 87.47980469 -34.59863281 86.79980469 C-35.25863281 86.79980469 -35.91863281 86.79980469 -36.59863281 86.79980469 C-36.92863281 87.45980469 -37.25863281 88.11980469 -37.59863281 88.79980469 C-38.91863281 88.79980469 -40.23863281 88.79980469 -41.59863281 88.79980469 C-41.26863281 89.78980469 -40.93863281 90.77980469 -40.59863281 91.79980469 C-39.93863281 91.79980469 -39.27863281 91.79980469 -38.59863281 91.79980469 C-38.41113281 94.11230469 -38.41113281 94.11230469 -38.59863281 96.79980469 C-40.03613281 98.36230469 -40.03613281 98.36230469 -41.59863281 99.79980469 C-42.46343545 102.31559418 -42.59863281 104.10626916 -42.59863281 106.79980469 C-44.57863281 107.78980469 -44.57863281 107.78980469 -46.59863281 108.79980469 C-46.53675781 109.56292969 -46.47488281 110.32605469 -46.41113281 111.11230469 C-46.59863281 113.79980469 -46.59863281 113.79980469 -47.97363281 115.61230469 C-49.59863281 116.79980469 -49.59863281 116.79980469 -51.59863281 116.79980469 C-53.38644727 122.72194008 -54.22630684 126.10651097 -51.59863281 131.79980469 C-50.93863281 132.45980469 -50.27863281 133.11980469 -49.59863281 133.79980469 C-50.25863281 134.78980469 -50.91863281 135.77980469 -51.59863281 136.79980469 C-51.84613281 137.41855469 -52.09363281 138.03730469 -52.34863281 138.67480469 C-54.15489473 141.74544995 -56.87780483 143.53244803 -59.59863281 145.79980469 C-60.97117869 147.94960966 -60.97117869 147.94960966 -61.59863281 149.79980469 C-62.52675781 149.44917969 -63.45488281 149.09855469 -64.41113281 148.73730469 C-67.57892811 147.47597841 -67.57892811 147.47597841 -70.59863281 148.79980469 C-70.59863281 148.13980469 -70.59863281 147.47980469 -70.59863281 146.79980469 C-71.25863281 147.12980469 -71.91863281 147.45980469 -72.59863281 147.79980469 C-72.92863281 149.44980469 -73.25863281 151.09980469 -73.59863281 152.79980469 C-67.32863281 152.46980469 -61.05863281 152.13980469 -54.59863281 151.79980469 C-54.59863281 152.78980469 -54.59863281 153.77980469 -54.59863281 154.79980469 C-53.93863281 155.12980469 -53.27863281 155.45980469 -52.59863281 155.79980469 C-52.92863281 156.12980469 -53.25863281 156.45980469 -53.59863281 156.79980469 C-53.70704106 158.50767536 -53.7454968 160.22001948 -53.7568512 161.93128967 C-53.76664001 163.04333267 -53.77642883 164.15537567 -53.78651428 165.30111694 C-53.79226974 166.53181915 -53.79802521 167.76252136 -53.80395508 169.03051758 C-53.81385468 170.31813492 -53.82375427 171.60575226 -53.83395386 172.93238831 C-53.86106638 176.4735184 -53.88204144 180.01466191 -53.90195584 183.55583882 C-53.92377639 187.25278134 -53.95118425 190.94968222 -53.97801208 194.64659119 C-54.0279923 201.65181347 -54.07291128 208.6570588 -54.11603445 215.66232628 C-54.16536138 223.63562302 -54.22029631 231.60887799 -54.27571404 239.58213437 C-54.38961586 255.987986 -54.49643695 272.39387587 -54.59863281 288.79980469 C-54.92863281 288.79980469 -55.25863281 288.79980469 -55.59863281 288.79980469 C-55.59863281 244.24980469 -55.59863281 199.69980469 -55.59863281 153.79980469 C-74.40863281 153.79980469 -93.21863281 153.79980469 -112.59863281 153.79980469 C-113.25863281 155.44980469 -113.91863281 157.09980469 -114.59863281 158.79980469 C-117.7713181 163.87610115 -122.02527829 166.80700641 -127.59863281 168.79980469 C-135.53447161 170.12905769 -141.83056301 169.22152401 -148.50097656 164.65527344 C-153.01944854 160.65848724 -156.23765965 155.46279468 -156.83691406 149.38183594 C-157.00988345 142.92734684 -156.60697177 138.01700777 -152.59863281 132.79980469 C-146.8124654 126.82563906 -142.88647134 123.67608714 -134.41113281 123.48730469 C-127.44454551 123.56471121 -122.94867959 124.6995421 -117.81738281 129.44824219 C-114.45020565 133.08542884 -113.62520541 134.66694171 -112.59863281 139.79980469 C-93.78863281 139.79980469 -74.97863281 139.79980469 -55.59863281 139.79980469 C-55.92863281 130.22980469 -56.25863281 120.65980469 -56.59863281 110.79980469 C-60.55863281 109.14980469 -64.51863281 107.49980469 -68.59863281 105.79980469 C-71.80575553 103.87553106 -74.65828724 102.05050557 -77.59863281 99.79980469 C-78.34886719 99.22617187 -79.09910156 98.65253906 -79.87207031 98.06152344 C-91.04020053 88.85639222 -98.87086329 75.25490618 -100.59863281 60.79980469 C-101.89602576 40.83425533 -99.5938499 24.30884228 -85.97363281 8.73730469 C-63.78626067 -15.44892981 -26.85041963 -20.15831749 0 0 Z M-65.59863281 141.79980469 C-65.92863281 142.78980469 -66.25863281 143.77980469 -66.59863281 144.79980469 C-65.60863281 145.12980469 -64.61863281 145.45980469 -63.59863281 145.79980469 C-64.25863281 144.47980469 -64.91863281 143.15980469 -65.59863281 141.79980469 Z M-65.59863281 145.79980469 C-64.59863281 147.79980469 -64.59863281 147.79980469 -64.59863281 147.79980469 Z " fill="#2487BF" transform="translate(446.5986328125,159.2001953125)"/>
<path d="M0 0 C6.35863827 3.59526013 10.74441314 7.84652066 13.09765625 14.90625 C20.51722816 15.05870104 27.93639451 15.16359233 35.35717773 15.23583984 C37.88011773 15.26596547 40.40295341 15.30687468 42.92553711 15.35888672 C46.55739105 15.43188162 50.18785746 15.46575049 53.8203125 15.4921875 C55.50508446 15.53863907 55.50508446 15.53863907 57.22389221 15.58602905 C62.55613037 15.58830754 66.09662907 15.50202579 70.23999023 11.93212891 C71.19816084 10.92883544 72.15182886 9.92118805 73.09765625 8.90625 C77.25354491 6.82830567 82.82107131 7.15596306 87.171875 8.58984375 C91.53727312 10.87197162 94.13688872 13.43570003 96.09765625 17.90625 C96.82220862 23.76989544 96.90817142 28.98127648 94.59765625 34.46875 C90.92046142 38.05401496 87.04281864 40.85252399 81.7421875 40.94921875 C80.93136719 40.93503906 80.12054688 40.92085938 79.28515625 40.90625 C74.90072628 41.1693158 72.8389457 42.68503546 69.83227539 45.85449219 C67.9439677 47.99792403 66.11035208 50.17752393 64.31689453 52.40087891 C62.71964379 54.37297503 61.03697604 56.26285131 59.34765625 58.15625 C58.81785156 58.77886719 58.28804688 59.40148437 57.7421875 60.04296875 C56.55986394 61.382561 55.31994472 62.67211069 54.046875 63.92578125 C52.15189791 65.85019488 50.50477918 67.59987301 49.09765625 69.90625 C49.53575818 73.48235835 49.53575818 73.48235835 51.09765625 76.90625 C51.6954874 83.18347709 50.94481951 87.78034213 47.09765625 92.90625 C42.97043433 97.0037083 38.84802292 98.25534857 33.09765625 98.53125 C27.33830201 98.25491735 23.23815459 96.99698274 19.09765625 92.90625 C15.39134724 88.15754157 14.42595988 83.24125701 14.7265625 77.29296875 C15.65055862 71.35021473 18.50015046 68.05451103 23.22265625 64.46875 C26.81561602 62.1828539 28.73443559 61.73857309 32.91015625 62.34375 C36.89434802 62.61596186 37.93410527 62.04239977 41.08203125 59.421875 C44.29188717 56.08701277 47.20573522 52.51644535 50.09765625 48.90625 C50.96965321 47.84755504 51.84325932 46.79018264 52.71875 45.734375 C54.2142343 43.91720196 55.69675563 42.08920248 57.16015625 40.24609375 C59.09765625 37.90625 59.09765625 37.90625 61.28515625 35.84765625 C63.23255855 33.76175335 63.53736542 32.62811738 64.09765625 29.90625 C56.76476205 29.89717094 49.43315358 29.93438493 42.10058594 30.00390625 C39.60584925 30.02208284 37.1110117 30.02963178 34.61621094 30.02636719 C31.0311046 30.02351507 27.44809735 30.05878209 23.86328125 30.1015625 C22.18809418 30.0879216 22.18809418 30.0879216 20.47906494 30.07400513 C17.56045459 30.12887769 14.93639372 30.224934 12.09765625 30.90625 C9.3552314 33.66816989 9.3552314 33.66816989 8.09765625 36.90625 C3.161503 42.10751634 -1.98903499 44.19867459 -9.08984375 44.40625 C-16.02266208 44.28847845 -20.64412884 42.39091002 -25.90234375 37.90625 C-31.65591422 31.60788417 -32.37698845 25.7804016 -32.30859375 17.49609375 C-31.60143218 11.2472333 -28.69748428 7.35347219 -24.05078125 3.28515625 C-17.06612033 -1.96076993 -8.23728722 -3.10422668 0 0 Z " fill="#0871AE" transform="translate(262.90234375,350.09375)"/>
<path d="M0 0 C8.38160507 5.51959359 14.42419534 12.17090952 17.59375 21.8046875 C19.35622813 31.32884818 18.68849149 41.44555939 14 50 C7.7442344 58.77586075 0.10828979 63.63057007 -10 67 C-20.55979771 67.83578308 -29.760619 66.55548187 -38.1171875 59.73828125 C-45.76069284 52.68151802 -50.55109378 45.91757128 -51.23828125 35.328125 C-51.45072014 27.48893856 -51.36029497 20.78570904 -47 14 C-46.38125 12.97519531 -46.38125 12.97519531 -45.75 11.9296875 C-36.11395144 -2.46963507 -15.63765866 -8.45679832 0 0 Z " fill="#0D1825" transform="translate(425,178)"/>
<path d="M0 0 C12.69655804 10.14948095 21.46819182 23.67969412 24.40136719 39.79980469 C24.66484185 43.07672869 24.68214897 46.32634901 24.65136719 49.61230469 C24.66296875 50.87977539 24.66296875 50.87977539 24.67480469 52.17285156 C24.67222656 52.98431641 24.66964844 53.79578125 24.66699219 54.63183594 C24.66473633 55.36120361 24.66248047 56.09057129 24.66015625 56.84204102 C24.40136719 58.79980469 24.40136719 58.79980469 22.40136719 61.79980469 C22.31886719 61.01605469 22.23636719 60.23230469 22.15136719 59.42480469 C21.66182641 56.69626715 21.66182641 56.69626715 19.52636719 55.42480469 C17.24596032 54.53434893 17.24596032 54.53434893 14.40136719 55.79980469 C14.07136719 55.13980469 13.74136719 54.47980469 13.40136719 53.79980469 C14.06136719 53.79980469 14.72136719 53.79980469 15.40136719 53.79980469 C15.07136719 52.14980469 14.74136719 50.49980469 14.40136719 48.79980469 C13.92957031 49.55777344 13.92957031 49.55777344 13.44824219 50.33105469 C13.02027344 50.98074219 12.59230469 51.63042969 12.15136719 52.29980469 C11.73371094 52.94949219 11.31605469 53.59917969 10.88574219 54.26855469 C10.39589844 54.77386719 9.90605469 55.27917969 9.40136719 55.79980469 C5.40136719 55.79980469 5.40136719 55.79980469 2.40136719 53.79980469 C2.73136719 53.13980469 3.06136719 52.47980469 3.40136719 51.79980469 C2.41136719 50.80980469 1.42136719 49.81980469 0.40136719 48.79980469 C1.06136719 48.46980469 1.72136719 48.13980469 2.40136719 47.79980469 C2.05691838 45.32713704 2.05691838 45.32713704 1.40136719 42.79980469 C0.74136719 42.46980469 0.08136719 42.13980469 -0.59863281 41.79980469 C-0.59863281 41.13980469 -0.59863281 40.47980469 -0.59863281 39.79980469 C-1.25863281 39.79980469 -1.91863281 39.79980469 -2.59863281 39.79980469 C-2.43363281 40.58355469 -2.26863281 41.36730469 -2.09863281 42.17480469 C-0.96055656 50.42585751 -1.18978471 58.05953033 -4.59863281 65.79980469 C-5.58863281 66.29480469 -5.58863281 66.29480469 -6.59863281 66.79980469 C-6.26863281 65.62417969 -5.93863281 64.44855469 -5.59863281 63.23730469 C-3.25260481 52.55359445 -3.29317607 41.34501106 -8.78222656 31.72558594 C-14.00979205 23.95087805 -21.49638927 18.85829706 -30.59863281 16.79980469 C-42.95743146 15.78093157 -51.94436015 16.96818669 -61.57910156 24.88183594 C-64.44326891 27.60196393 -66.4896016 30.4661747 -68.59863281 33.79980469 C-69.59863281 31.79980469 -69.59863281 31.79980469 -69.59863281 28.79980469 C-69.26863281 27.80980469 -68.93863281 26.81980469 -68.59863281 25.79980469 C-67.60863281 25.30480469 -67.60863281 25.30480469 -66.59863281 24.79980469 C-67.25863281 23.80980469 -67.91863281 22.81980469 -68.59863281 21.79980469 C-68.92863281 22.78980469 -69.25863281 23.77980469 -69.59863281 24.79980469 C-72.56863281 25.29480469 -72.56863281 25.29480469 -75.59863281 25.79980469 C-75.74300781 25.05730469 -75.88738281 24.31480469 -76.03613281 23.54980469 C-76.50050773 21.27952729 -77.0172685 19.04220989 -77.59863281 16.79980469 C-80.72060759 18.10876189 -80.72060759 18.10876189 -82.59863281 20.79980469 C-83.25863281 20.46980469 -83.91863281 20.13980469 -84.59863281 19.79980469 C-86.08363281 20.29480469 -86.08363281 20.29480469 -87.59863281 20.79980469 C-88.25863281 20.46980469 -88.91863281 20.13980469 -89.59863281 19.79980469 C-89.26863281 21.11980469 -88.93863281 22.43980469 -88.59863281 23.79980469 C-93.34863281 26.79980469 -93.34863281 26.79980469 -95.59863281 26.79980469 C-95.92863281 27.45980469 -96.25863281 28.11980469 -96.59863281 28.79980469 C-95.151658 16.84047072 -85.60324024 7.19710958 -76.59863281 -0.20019531 C-54.284377 -16.94082833 -22.32038484 -16.75733229 0 0 Z " fill="#3192C8" transform="translate(446.5986328125,159.2001953125)"/>
<path d="M0 0 C3.93026172 2.34816484 7.20085246 5.50686862 9.5625 9.4375 C10.0575 11.9125 10.0575 11.9125 10.5625 14.4375 C29.7025 14.4375 48.8425 14.4375 68.5625 14.4375 C68.5625 10.4775 68.5625 6.5175 68.5625 2.4375 C70.2125 4.0875 71.8625 5.7375 73.5625 7.4375 C72.89583333 8.77083333 72.22916667 10.10416667 71.5625 11.4375 C71.19125 12.3965625 71.19125 12.3965625 70.8125 13.375 C68.9848399 16.39063917 66.25638802 18.19259332 63.5625 20.4375 C62.18995412 22.58730497 62.18995412 22.58730497 61.5625 24.4375 C60.634375 24.086875 59.70625 23.73625 58.75 23.375 C55.5822047 22.11367372 55.5822047 22.11367372 52.5625 23.4375 C52.5625 22.7775 52.5625 22.1175 52.5625 21.4375 C51.9025 21.7675 51.2425 22.0975 50.5625 22.4375 C50.0675 24.9125 50.0675 24.9125 49.5625 27.4375 C55.8325 27.1075 62.1025 26.7775 68.5625 26.4375 C68.5625 27.4275 68.5625 28.4175 68.5625 29.4375 C69.2225 29.7675 69.8825 30.0975 70.5625 30.4375 C70.2325 30.7675 69.9025 31.0975 69.5625 31.4375 C69.45409176 33.14537067 69.41563602 34.8577148 69.40428162 36.56898499 C69.3944928 37.68102798 69.38470398 38.79307098 69.37461853 39.93881226 C69.36886307 41.16951447 69.3631076 42.40021667 69.35717773 43.66821289 C69.34727814 44.95583023 69.33737854 46.24344757 69.32717896 47.57008362 C69.30006643 51.11121371 69.27909137 54.65235723 69.25917697 58.19353414 C69.23735642 61.89047666 69.20994856 65.58737753 69.18312073 69.2842865 C69.13314051 76.28950878 69.08822153 83.29475411 69.04509836 90.30002159 C68.99577143 98.27331833 68.9408365 106.2465733 68.88541877 114.21982968 C68.77151695 130.62568131 68.66469587 147.03157119 68.5625 163.4375 C68.2325 163.4375 67.9025 163.4375 67.5625 163.4375 C67.5625 118.8875 67.5625 74.3375 67.5625 28.4375 C48.7525 28.4375 29.9425 28.4375 10.5625 28.4375 C9.9025 30.0875 9.2425 31.7375 8.5625 33.4375 C5.38981471 38.51379646 1.13585452 41.44470173 -4.4375 43.4375 C-12.3733388 44.766753 -18.6694302 43.85921932 -25.33984375 39.29296875 C-29.85831573 35.29618255 -33.07652683 30.10048999 -33.67578125 24.01953125 C-33.84875063 17.56504215 -33.44583896 12.65470308 -29.4375 7.4375 C-21.33998058 -0.92311572 -11.52641152 -5.22709359 0 0 Z M57.5625 16.4375 C57.2325 17.4275 56.9025 18.4175 56.5625 19.4375 C57.5525 19.7675 58.5425 20.0975 59.5625 20.4375 C58.9025 19.1175 58.2425 17.7975 57.5625 16.4375 Z M57.5625 20.4375 C58.5625 22.4375 58.5625 22.4375 58.5625 22.4375 Z " fill="#147EBA" transform="translate(323.4375,284.5625)"/>
<path d="M0 0 C0.66 0.33 1.32 0.66 2 1 C1.67 1.66 1.34 2.32 1 3 C1.99 2.01 2.98 1.02 4 0 C4.99 0.33 5.98 0.66 7 1 C6.90035771 6.57996799 6.29879443 9.0683893 2.3125 13.0625 C0.38605307 14.97720954 0.38605307 14.97720954 -1 17 C-0.56189807 20.57610835 -0.56189807 20.57610835 1 24 C1.59783115 30.27722709 0.84716326 34.87409213 -3 40 C-7.12722192 44.0974583 -11.24963333 45.34909857 -17 45.625 C-22.75935424 45.34866735 -26.85950166 44.09073274 -31 40 C-34.70630901 35.25129157 -35.67169637 30.33500701 -35.37109375 24.38671875 C-34.44709763 18.44396473 -31.59750579 15.14826103 -26.875 11.5625 C-23.32624611 9.32486208 -21.10225961 8.75447464 -16.9375 9.0625 C-13.76409905 9.29445932 -12.4377512 9.28254165 -9.73046875 7.53515625 C-8.37737849 6.30758456 -7.05911993 5.03985593 -5.7890625 3.7265625 C-3.93630419 1.93852937 -2.40721518 0.90146741 0 0 Z " fill="#066CAA" transform="translate(313,403)"/>
<path d="M0 0 C5.04069073 2.87166624 8.40906805 7.03523877 10.6875 12.375 C11.54279787 18.28433076 10.84702608 24.25116329 7.6875 29.375 C3.68567025 33.68530412 0.07678754 37.02351833 -5.94921875 37.6484375 C-13.17048745 37.88883825 -17.73915029 37.0909113 -23.3125 32.375 C-23.9725 31.715 -24.6325 31.055 -25.3125 30.375 C-27.81939829 30.0432747 -27.81939829 30.0432747 -30.77197266 30.05615234 C-31.91300446 30.03628265 -33.05403625 30.01641296 -34.22964478 29.99594116 C-35.46612762 29.98438995 -36.70261047 29.97283875 -37.9765625 29.9609375 C-39.8700795 29.93188828 -39.8700795 29.93188828 -41.80184937 29.9022522 C-45.15884212 29.85250955 -48.51572315 29.81127428 -51.87286377 29.77410889 C-55.29815664 29.73411153 -58.72328146 29.68299981 -62.1484375 29.6328125 C-68.86968381 29.5365994 -75.59100305 29.45159418 -82.3125 29.375 C-82.3125 29.045 -82.3125 28.715 -82.3125 28.375 C-74.81935393 28.32863438 -67.32622276 28.29310931 -59.83296585 28.27137566 C-56.35343606 28.26094392 -52.87400451 28.24679599 -49.39453125 28.22412109 C-45.39321963 28.19820905 -41.39201103 28.18852218 -37.390625 28.1796875 C-36.14259094 28.16936493 -34.89455688 28.15904236 -33.60870361 28.14840698 C-32.44780212 28.14825592 -31.28690063 28.14810486 -30.09082031 28.14794922 C-29.06933899 28.143508 -28.04785767 28.13906677 -26.99542236 28.13449097 C-24.24812457 28.3807709 -22.72473366 29.13427154 -20.3125 30.375 C-19.4875 30.045 -18.6625 29.715 -17.8125 29.375 C-15.3125 28.375 -15.3125 28.375 -13.1875 29.1875 C-12.56875 29.579375 -11.95 29.97125 -11.3125 30.375 C-7.83426885 31.53441038 -5.85354422 31.08320884 -2.3125 30.375 C-2.9725 31.365 -3.6325 32.355 -4.3125 33.375 C-2.6625 33.375 -1.0125 33.375 0.6875 33.375 C1.0175 31.725 1.3475 30.075 1.6875 28.375 C3.0075 28.045 4.3275 27.715 5.6875 27.375 C5.6875 26.055 5.6875 24.735 5.6875 23.375 C5.0275 23.375 4.3675 23.375 3.6875 23.375 C3.6875 24.035 3.6875 24.695 3.6875 25.375 C2.3675 25.045 1.0475 24.715 -0.3125 24.375 C-0.6425 25.035 -0.9725 25.695 -1.3125 26.375 C-1.8075 24.395 -1.8075 24.395 -2.3125 22.375 C-1.508125 22.16875 -0.70375 21.9625 0.125 21.75 C0.970625 21.29625 1.81625 20.8425 2.6875 20.375 C3.58580839 17.32227535 3.58580839 17.32227535 3.6875 14.375 C4.3475 14.375 5.0075 14.375 5.6875 14.375 C6.6468157 12.17985127 6.6468157 12.17985127 6.6875 9.375 C5.06975394 6.47421395 4.33613704 5.16942293 1.6875 3.375 C-0.95075261 2.77539713 -3.40353673 2.56553707 -6.10546875 2.48046875 C-8.3125 2.375 -8.3125 2.375 -10.3125 1.375 C-10.745625 1.87 -11.17875 2.365 -11.625 2.875 C-13.3125 4.375 -13.3125 4.375 -16.3125 4.375 C-16.6425 5.035 -16.9725 5.695 -17.3125 6.375 C-17.93125 6.519375 -18.55 6.66375 -19.1875 6.8125 C-21.67960392 7.47217457 -22.6454446 8.45788629 -24.3125 10.375 C-23.8175 11.365 -23.8175 11.365 -23.3125 12.375 C-23.9725 13.035 -24.6325 13.695 -25.3125 14.375 C-25.3125 15.035 -25.3125 15.695 -25.3125 16.375 C-26.9625 17.035 -28.6125 17.695 -30.3125 18.375 C-30.8659764 16.29946352 -31.3125 14.53134036 -31.3125 12.375 C-37.09707229 11.40225026 -42.76166781 11.16430874 -48.62109375 11.05859375 C-49.58781509 11.03781265 -50.55453644 11.01703156 -51.55055237 10.99562073 C-54.61696758 10.93061009 -57.68346322 10.87146723 -60.75 10.8125 C-62.8378987 10.7692686 -64.92578949 10.72565288 -67.01367188 10.68164062 C-72.11320033 10.57497885 -77.21280911 10.47357691 -82.3125 10.375 C-82.3125 10.045 -82.3125 9.715 -82.3125 9.375 C-81.6242514 9.3780162 -80.93600281 9.38103241 -80.22689819 9.38414001 C-73.05620517 9.40872326 -65.88684442 9.38457978 -58.71630859 9.33227539 C-56.04054405 9.31524264 -53.36696059 9.31838878 -50.69091797 9.33032227 C-46.84251429 9.34532718 -42.99663442 9.31565902 -39.1484375 9.27734375 C-37.95447357 9.29159897 -36.76050964 9.30585419 -35.53036499 9.32054138 C-29.51781123 9.35747636 -29.51781123 9.35747636 -24.28155518 6.82473755 C-22.66683645 4.99766456 -22.66683645 4.99766456 -21.44229126 3.06373596 C-16.92277328 -3.69173544 -6.58535597 -2.97523644 0 0 Z " fill="#0D8AD1" transform="translate(508.3125,289.625)"/>
<path d="M0 0 C18.81 0 37.62 0 57 0 C57.02009339 14.58556554 57.04017523 29.17109298 57.05025387 43.75666142 C57.05575381 51.59323307 57.06268866 59.42979385 57.07543945 67.26635742 C57.08554425 73.4797794 57.0918901 79.6931931 57.09408849 85.90662307 C57.09536941 89.18328762 57.09884438 92.45992361 57.10573006 95.7365818 C57.14087196 113.18130901 56.77991941 130.57214607 56 148 C55.67 148 55.34 148 55 148 C55 99.82 55 51.64 55 2 C26.01562655 -1.00373464 26.01562655 -1.00373464 -1 4 C-0.67 2.68 -0.34 1.36 0 0 Z " fill="#0C1118" transform="translate(334,313)"/>
<path d="M0 0 C4.10108886 1.62156024 6.83148167 4.5767703 9.859375 7.6640625 C10.40861633 8.21613373 10.95785767 8.76820496 11.52374268 9.33700562 C13.27059293 11.09501815 15.01034601 12.8598689 16.75 14.625 C17.93573591 15.8207708 19.1219288 17.01608865 20.30859375 18.2109375 C23.21105085 21.13540253 26.1071641 24.06601874 29 27 C26 27 26 27 23.44140625 24.62890625 C21.98385072 23.09917465 20.55007586 21.54906985 19.11523438 19.99804688 C15.67733739 16.34177846 15.67733739 16.34177846 11 15 C11 15.66 11 16.32 11 17 C6.545 18.485 6.545 18.485 2 20 C2 19.34 2 18.68 2 18 C0.68 17.34 -0.64 16.68 -2 16 C-2.20674944 10.21101581 -1.59162079 5.57067277 0 0 Z " fill="#076CA9" transform="translate(230,426)"/>
<path d="M0 0 C3.84720685 2.19728684 6.25075929 4.68058667 8.6875 8.375 C8.3575 9.365 8.0275 10.355 7.6875 11.375 C7.06875 10.42625 6.45 9.4775 5.8125 8.5 C3.86779031 5.43054891 3.86779031 5.43054891 1.6875 3.375 C-0.67840469 2.95011737 -0.67840469 2.95011737 -3.3125 2.8125 C-8.12266949 2.46991525 -8.12266949 2.46991525 -10.3125 1.375 C-10.745625 1.87 -11.17875 2.365 -11.625 2.875 C-13.3125 4.375 -13.3125 4.375 -16.3125 4.375 C-16.6425 5.035 -16.9725 5.695 -17.3125 6.375 C-17.93125 6.519375 -18.55 6.66375 -19.1875 6.8125 C-21.67960392 7.47217457 -22.6454446 8.45788629 -24.3125 10.375 C-23.8175 11.365 -23.8175 11.365 -23.3125 12.375 C-23.9725 13.035 -24.6325 13.695 -25.3125 14.375 C-25.3125 15.035 -25.3125 15.695 -25.3125 16.375 C-26.9625 17.035 -28.6125 17.695 -30.3125 18.375 C-30.8659764 16.29946352 -31.3125 14.53134036 -31.3125 12.375 C-37.09707229 11.40225026 -42.76166781 11.16430874 -48.62109375 11.05859375 C-49.58781509 11.03781265 -50.55453644 11.01703156 -51.55055237 10.99562073 C-54.61696758 10.93061009 -57.68346322 10.87146723 -60.75 10.8125 C-62.8378987 10.7692686 -64.92578949 10.72565288 -67.01367188 10.68164062 C-72.11320033 10.57497885 -77.21280911 10.47357691 -82.3125 10.375 C-82.3125 10.045 -82.3125 9.715 -82.3125 9.375 C-81.6242514 9.3780162 -80.93600281 9.38103241 -80.22689819 9.38414001 C-73.05620517 9.40872326 -65.88684442 9.38457978 -58.71630859 9.33227539 C-56.04054405 9.31524264 -53.36696059 9.31838878 -50.69091797 9.33032227 C-46.84251429 9.34532718 -42.99663442 9.31565902 -39.1484375 9.27734375 C-37.95447357 9.29159897 -36.76050964 9.30585419 -35.53036499 9.32054138 C-29.51781123 9.35747636 -29.51781123 9.35747636 -24.28155518 6.82473755 C-22.66683645 4.99766456 -22.66683645 4.99766456 -21.44229126 3.06373596 C-16.92277328 -3.69173544 -6.58535597 -2.97523644 0 0 Z " fill="#1288C8" transform="translate(508.3125,289.625)"/>
<path d="M0 0 C0.66 0.33 1.32 0.66 2 1 C4.8057848 9.90643614 5.41585806 18.72790537 5 28 C4.67 28 4.34 28 4 28 C3.34 24.7 2.68 21.4 2 18 C0.68 17.67 -0.64 17.34 -2 17 C-2.33 16.34 -2.66 15.68 -3 15 C-4.32 15.33 -5.64 15.66 -7 16 C-7 15.34 -7 14.68 -7 14 C-7.928125 14.515625 -8.85625 15.03125 -9.8125 15.5625 C-13 17 -13 17 -16 16 C-10.72 10.72 -5.44 5.44 0 0 Z " fill="#0469A7" transform="translate(585,426)"/>
<path d="M0 0 C0.5671875 0.23589844 1.134375 0.47179687 1.71875 0.71484375 C2.04875 2.03484375 2.37875 3.35484375 2.71875 4.71484375 C2.05875 4.71484375 1.39875 4.71484375 0.71875 4.71484375 C0.71875 6.36484375 0.71875 8.01484375 0.71875 9.71484375 C-0.27125 9.71484375 -1.26125 9.71484375 -2.28125 9.71484375 C-3.27125 10.37484375 -4.26125 11.03484375 -5.28125 11.71484375 C-5.94125 11.71484375 -6.60125 11.71484375 -7.28125 11.71484375 C-7.5048568 14.64030815 -7.5048568 14.64030815 -6.28125 16.71484375 C-8.15625 17.33984375 -8.15625 17.33984375 -10.28125 17.71484375 C-10.94125 17.05484375 -11.60125 16.39484375 -12.28125 15.71484375 C-12.94125 18.68484375 -13.60125 21.65484375 -14.28125 24.71484375 C-14.61125 24.71484375 -14.94125 24.71484375 -15.28125 24.71484375 C-15.83109448 18.11671005 -15.27124193 13.13361263 -11.28125 7.71484375 C-3.74763894 -0.46845487 -3.74763894 -0.46845487 0 0 Z " fill="#1684C1" transform="translate(305.28125,284.28515625)"/>
<path d="M0 0 C3.52238047 1.56367357 6.27123994 3.69495889 9.25 6.125 C10.14203125 6.84945313 11.0340625 7.57390625 11.953125 8.3203125 C12.62859375 8.87460937 13.3040625 9.42890625 14 10 C7.0226753 14.6515498 -2.93592821 13.10193349 -11 13 C-9.35 11.35 -7.7 9.7 -6 8 C-4 9 -4 9 -3 10 C-1.87119943 6.68885166 -0.78697325 3.41021743 0 0 Z " fill="#056BAD" transform="translate(281,473)"/>
<path d="M0 0 C0.66 0.33 1.32 0.66 2 1 C1.34 1.66 0.68 2.32 0 3 C1.07401108 5.91517292 1.77810176 7.77810176 4 10 C3.67 10.99 3.34 11.98 3 13 C8.94 13.99 8.94 13.99 15 15 C15 15.33 15 15.66 15 16 C8.51877412 16.18343092 2.40111777 15.4800332 -4 14.5 C-5.44826172 14.28537109 -5.44826172 14.28537109 -6.92578125 14.06640625 C-9.28467335 13.71607574 -11.64264545 13.3605065 -14 13 C-10.82222895 9.77707412 -7.58412265 6.67855577 -4.1875 3.6875 C-3.39730469 2.99011719 -2.60710938 2.29273438 -1.79296875 1.57421875 C-1.20128906 1.05472656 -0.60960937 0.53523438 0 0 Z " fill="#026AAC" transform="translate(536,471)"/>
<path d="M0 0 C2 2 2 2 2.265625 4.0234375 C2.26046875 4.79945313 2.2553125 5.57546875 2.25 6.375 C2.25515625 7.14585937 2.2603125 7.91671875 2.265625 8.7109375 C1.96895555 11.2675301 1.38206744 12.83476101 0 15 C-0.99 15.66 -1.98 16.32 -3 17 C-3 15.68 -3 14.36 -3 13 C-3.66 13 -4.32 13 -5 13 C-5 13.66 -5 14.32 -5 15 C-6.32 14.67 -7.64 14.34 -9 14 C-9.33 14.66 -9.66 15.32 -10 16 C-10.33 14.68 -10.66 13.36 -11 12 C-10.195625 11.79375 -9.39125 11.5875 -8.5625 11.375 C-7.716875 10.92125 -6.87125 10.4675 -6 10 C-5.10169161 6.94727535 -5.10169161 6.94727535 -5 4 C-4.34 4 -3.68 4 -3 4 C-2.67 3.01 -2.34 2.02 -2 1 C-1.34 0.67 -0.68 0.34 0 0 Z " fill="#0D75B0" transform="translate(517,300)"/>
<path d="M0 0 C0.8971875 0.495 0.8971875 0.495 1.8125 1 C4.05386471 2.20787988 4.05386471 2.20787988 7 2 C6.47731534 4.76276177 5.89130413 7.3260876 5 10 C4.85507877 11.40664926 4.75371069 12.8181133 4.68359375 14.23046875 C4.64169922 15.03291016 4.59980469 15.83535156 4.55664062 16.66210938 C4.51732422 17.49548828 4.47800781 18.32886719 4.4375 19.1875 C4.39431641 20.03248047 4.35113281 20.87746094 4.30664062 21.74804688 C4.20068482 23.83184433 4.0998498 25.91590103 4 28 C1.65229357 24.47844036 1.62330386 22.49228157 1.375 18.3125 C1.30023438 17.13300781 1.22546875 15.95351562 1.1484375 14.73828125 C1.07496094 13.38283203 1.07496094 13.38283203 1 12 C-1.475 11.01 -1.475 11.01 -4 10 C-3.67 9.34 -3.34 8.68 -3 8 C-2.34 8 -1.68 8 -1 8 C-1 7.34 -1 6.68 -1 6 C-1.66 5.67 -2.32 5.34 -3 5 C-2.67 4.01 -2.34 3.02 -2 2 C-1.34 2 -0.68 2 0 2 C0 1.34 0 0.68 0 0 Z " fill="#2D90C7" transform="translate(370,191)"/>
<path d="M0 0 C18.48 0 36.96 0 56 0 C54 3 52 6 50 9 C48.68 8.34 47.36 7.68 46 7 C46.33 5.02 46.66 3.04 47 1 C31.49 1 15.98 1 0 1 C0 0.67 0 0.34 0 0 Z " fill="#1794D8" transform="translate(335,300)"/>
<path d="M0 0 C0.33 0 0.66 0 1 0 C1.33 1.65 1.66 3.3 2 5 C2.66 5 3.32 5 4 5 C4.33 6.65 4.66 8.3 5 10 C4.01 10 3.02 10 2 10 C3.32 11.65 4.64 13.3 6 15 C5.34 15 4.68 15 4 15 C4.391875 15.515625 4.78375 16.03125 5.1875 16.5625 C6 19 6 19 4.8125 22.6875 C3 26 3 26 0 27 C0 18.09 0 9.18 0 0 Z " fill="#076BA8" transform="translate(392,377)"/>
<path d="M0 0 C2.475 2.475 2.475 2.475 5 5 C4.33333333 6.33333333 3.66666667 7.66666667 3 9 C2.67 9.721875 2.34 10.44375 2 11.1875 C1 13 1 13 -1 14 C-2.78815914 14.0621803 -4.57880005 14.0578269 -6.36767578 14.02172852 C-7.48868683 14.00163223 -8.60969788 13.98153595 -9.76467896 13.96083069 C-10.97928802 13.93379562 -12.19389709 13.90676056 -13.4453125 13.87890625 C-15.30553543 13.84348976 -15.30553543 13.84348976 -17.20333862 13.80735779 C-20.50124903 13.74364252 -23.79902732 13.67544603 -27.09680176 13.60510254 C-30.4615966 13.53442463 -33.82650365 13.46960444 -37.19140625 13.40429688 C-43.79438801 13.2749464 -50.39722933 13.13968995 -57 13 C-57 12.67 -57 12.34 -57 12 C-38.19 12 -19.38 12 0 12 C0 8.04 0 4.08 0 0 Z " fill="#126DA1" transform="translate(392,287)"/>
<path d="M0 0 C7.2194531 -0.47775793 13.0443966 -0.4471973 19 4 C22.77369707 7.47707459 25.67709559 10.6720773 26 16 C23.33333333 12.66666667 20.66666667 9.33333333 18 6 C15.83333333 6.83333333 15.83333333 6.83333333 15 9 C14.34 8.67 13.68 8.34 13 8 C12.375 5.4375 12.375 5.4375 12 3 C10.02 3.33 8.04 3.66 6 4 C6 3.01 6 2.02 6 1 C4.02 1 2.04 1 0 1 C0 0.67 0 0.34 0 0 Z " fill="#1789C7" transform="translate(308,283)"/>
<path d="M0 0 C1.9375 0.6875 1.9375 0.6875 4 2 C4.9375 4.4375 4.9375 4.4375 5 7 C3.6875 8.8125 3.6875 8.8125 2 10 C1.34 10 0.68 10 0 10 C-0.66 11.65 -1.32 13.3 -2 15 C-2.33 15 -2.66 15 -3 15 C-3.55353075 4.44191344 -3.55353075 4.44191344 0 0 Z " fill="#1B80B8" transform="translate(395,266)"/>
<path d="M0 0 C0.94875 0.391875 1.8975 0.78375 2.875 1.1875 C3.535 1.1875 4.195 1.1875 4.875 1.1875 C5.205 3.1675 5.535 5.1475 5.875 7.1875 C2.5625 7.875 2.5625 7.875 -1.125 8.1875 C-2.875 6.9375 -2.875 6.9375 -4.125 5.1875 C-4.681875 4.630625 -5.23875 4.07375 -5.8125 3.5 C-6.245625 3.066875 -6.67875 2.63375 -7.125 2.1875 C-4.45441777 -0.48308223 -3.77506981 -0.98151815 0 0 Z " fill="#0C74AF" transform="translate(494.125,318.8125)"/>
<path d="M0 0 C1.74627478 2.61941217 2.38722388 4.03824877 3 7 C1.824375 7.61875 1.824375 7.61875 0.625 8.25 C-2.14550828 10.09700552 -2.81336196 10.98776497 -4 14 C-5 16 -5 16 -6 18 C-7.66666667 18 -9.33333333 18 -11 18 C-7.81818182 11.40909091 -7.81818182 11.40909091 -5 10 C-4.27840576 8.35636866 -3.60648579 6.68949614 -3 5 C-2.01 5 -1.02 5 0 5 C0 3.35 0 1.7 0 0 Z " fill="#197FB8" transform="translate(419,267)"/>
<path d="M0 0 C4.10108886 1.62156024 6.83148167 4.5767703 9.859375 7.6640625 C10.40861633 8.21613373 10.95785767 8.76820496 11.52374268 9.33700562 C13.27059293 11.09501815 15.01034601 12.8598689 16.75 14.625 C17.93573591 15.8207708 19.1219288 17.01608865 20.30859375 18.2109375 C23.21105085 21.13540253 26.1071641 24.06601874 29 27 C26 27 26 27 23.57983398 24.90454102 C22.62767059 23.94512976 21.68358223 22.97766209 20.74609375 22.00390625 C20.24457291 21.49576889 19.74305206 20.98763153 19.22633362 20.46409607 C17.62282603 18.83715273 16.0297984 17.20040924 14.4375 15.5625 C12.83996065 13.9299132 11.24031578 12.29947016 9.63795471 10.6716156 C8.64088444 9.65755455 7.64691579 8.64043276 6.65635681 7.62001038 C4.08957571 4.96845902 4.08957571 4.96845902 1 3 C0.67 3.66 0.34 4.32 0 5 C0 3.35 0 1.7 0 0 Z " fill="#057AC0" transform="translate(230,426)"/>
<path d="M0 0 C0.33 0 0.66 0 1 0 C1.03738281 1.27617187 1.07476562 2.55234375 1.11328125 3.8671875 C1.17892791 5.53648838 1.2453757 7.20575789 1.3125 8.875 C1.33505859 9.71675781 1.35761719 10.55851562 1.38085938 11.42578125 C1.41630859 12.23144531 1.45175781 13.03710938 1.48828125 13.8671875 C1.51446533 14.61081543 1.54064941 15.35444336 1.56762695 16.12060547 C1.86729591 18.40733826 1.86729591 18.40733826 5 20 C7.15274948 19.69159401 7.15274948 19.69159401 9 19 C9 20.32 9 21.64 9 23 C4.545 24.485 4.545 24.485 0 26 C0 17.42 0 8.84 0 0 Z " fill="#0573B9" transform="translate(226,452)"/>
<path d="M0 0 C10.56 0 21.12 0 32 0 C31.34 1.32 30.68 2.64 30 4 C29.34 3.67 28.68 3.34 28 3 C28.33 2.34 28.66 1.68 29 1 C28.236875 1.165 27.47375 1.33 26.6875 1.5 C19.80062179 2.43381399 12.81507564 2.47352987 6 1 C5.67 1.66 5.34 2.32 5 3 C3.68 3 2.36 3 1 3 C0.01 3.495 0.01 3.495 -1 4 C-0.67 2.68 -0.34 1.36 0 0 Z " fill="#1378B0" transform="translate(437,300)"/>
<path d="M0 0 C4.97306516 0.49730652 8.63799813 1.55302334 13 4 C9.37673261 5.2077558 8.35853631 4.54311128 5 3 C4.34 4.32 3.68 5.64 3 7 C2.01 6.67 1.02 6.34 0 6 C-0.99 6.66 -1.98 7.32 -3 8 C-3.66 6.68 -4.32 5.36 -5 4 C-4.360625 3.71125 -3.72125 3.4225 -3.0625 3.125 C-0.84793921 2.17176549 -0.84793921 2.17176549 0 0 Z " fill="#389CD2" transform="translate(425,150)"/>
<path d="M0 0 C2 2 2 2 2.265625 4.09375 C2.26046875 4.8878125 2.2553125 5.681875 2.25 6.5 C2.25515625 7.2940625 2.2603125 8.088125 2.265625 8.90625 C2 11 2 11 0 13 C-0.28875 12.360625 -0.5775 11.72125 -0.875 11.0625 C-1.82823451 8.84793921 -1.82823451 8.84793921 -4 8 C-4.33 8.66 -4.66 9.32 -5 10 C-6.125 6.25 -6.125 6.25 -5 4 C-4.34 4 -3.68 4 -3 4 C-2.67 3.01 -2.34 2.02 -2 1 C-1.34 0.67 -0.68 0.34 0 0 Z " fill="#107BB9" transform="translate(517,300)"/>
<path d="M0 0 C0.33 0 0.66 0 1 0 C1.144375 0.7425 1.28875 1.485 1.4375 2.25 C1.90187492 4.52027739 2.41863569 6.75759479 3 9 C0.63188533 9.76117972 -0.6434665 10.10804045 -3.0625 9.375 C-3.701875 9.25125 -4.34125 9.1275 -5 9 C-6.77190909 10.35444301 -6.77190909 10.35444301 -8 12 C-8.66 11.67 -9.32 11.34 -10 11 C-9.44570313 10.45730469 -8.89140625 9.91460937 -8.3203125 9.35546875 C-7.23363281 8.28232422 -7.23363281 8.28232422 -6.125 7.1875 C-5.40570313 6.47980469 -4.68640625 5.77210938 -3.9453125 5.04296875 C-1.84641063 2.95600806 -1.84641063 2.95600806 0 0 Z " fill="#228EC9" transform="translate(439,227)"/>
<path d="M0 0 C4.99064443 0.45369495 8.33533571 2.75984765 12 6 C14.5 9.0625 14.5 9.0625 16 12 C15.75 14.375 15.75 14.375 15 16 C11 9.25 11 9.25 11 7 C10.21625 7.185625 9.4325 7.37125 8.625 7.5625 C6 8 6 8 4 7 C4 5.35 4 3.7 4 2 C2.68 1.34 1.36 0.68 0 0 Z " fill="#0A7CBF" transform="translate(259,350)"/>
<path d="M0 0 C0.66 0 1.32 0 2 0 C2 0.66 2 1.32 2 2 C0.68 2.33 -0.64 2.66 -2 3 C-2 3.99 -2 4.98 -2 6 C-1.34 6.33 -0.68 6.66 0 7 C-1 9 -1 9 -3 10 C-5.03833424 8.7260411 -7.03852126 7.38938077 -9 6 C-9 5.34 -9 4.68 -9 4 C-6.35001226 2.58036371 -3.91349184 1.70325665 -1 1 C-0.67 0.67 -0.34 0.34 0 0 Z " fill="#015995" transform="translate(365,540)"/>
<path d="M0 0 C3.89917968 1.61537444 6.71293772 4.27924873 9.75 7.125 C10.25660156 7.59292969 10.76320313 8.06085938 11.28515625 8.54296875 C12.52719141 9.69126541 13.76411494 10.84508672 15 12 C12 12 12 12 9 10 C8.67 10.99 8.34 11.98 8 13 C7.34 12.67 6.68 12.34 6 12 C6 11.01 6 10.02 6 9 C5.34 8.67 4.68 8.34 4 8 C4.66 8 5.32 8 6 8 C3.45395403 4.47618313 3.45395403 4.47618313 0 2 C0 1.34 0 0.68 0 0 Z " fill="#0670B2" transform="translate(259,454)"/>
<path d="M0 0 C0 0.99 0 1.98 0 3 C-0.66 3.66 -1.32 4.32 -2 5 C-2.16687448 7.58354218 -2.16687448 7.58354218 -2 10 C-2.54269531 10.26554687 -3.08539063 10.53109375 -3.64453125 10.8046875 C-4.35996094 11.15789062 -5.07539063 11.51109375 -5.8125 11.875 C-6.87404297 12.39707031 -6.87404297 12.39707031 -7.95703125 12.9296875 C-10.21246418 14.0656486 -10.21246418 14.0656486 -13 16 C-11.3383196 11.87582937 -8.37661982 8.93445961 -5.375 5.75 C-4.859375 5.19570313 -4.34375 4.64140625 -3.8125 4.0703125 C-2.54574965 2.7097288 -1.27342185 1.35434163 0 0 Z " fill="#067ABE" transform="translate(327,383)"/>
<path d="M0 0 C3.63 0 7.26 0 11 0 C10.01 2.31 9.02 4.62 8 7 C7.34 7 6.68 7 6 7 C5.67 7.66 5.34 8.32 5 9 C4.01 7.68 3.02 6.36 2 5 C2.99 4.01 3.98 3.02 5 2 C3.35 2 1.7 2 0 2 C0 1.34 0 0.68 0 0 Z " fill="#015B96" transform="translate(335,547)"/>
<path d="M0 0 C3.3 0 6.6 0 10 0 C10.33 0.66 10.66 1.32 11 2 C10.34 2 9.68 2 9 2 C8.67 3.65 8.34 5.3 8 7 C5.05043472 5.63055898 2.47531189 4.12169591 0 2 C0 1.34 0 0.68 0 0 Z " fill="#015B97" transform="translate(301,569)"/>
<path d="M0 0 C2.64 0 5.28 0 8 0 C6.38731308 2.71224618 4.75098126 5.37352812 3 8 C1.68 7.34 0.36 6.68 -1 6 C-0.67 4.02 -0.34 2.04 0 0 Z " fill="#147BB5" transform="translate(382,301)"/>
<path d="M0 0 C0.66 0.33 1.32 0.66 2 1 C0.75323147 2.27400377 -0.4975648 3.54406654 -1.75 4.8125 C-2.44609375 5.52019531 -3.1421875 6.22789062 -3.859375 6.95703125 C-5.81428645 8.82275879 -7.80338553 10.43169642 -10 12 C-9.67 12.66 -9.34 13.32 -9 14 C-10.98 14.99 -10.98 14.99 -13 16 C-13.66 15.34 -14.32 14.68 -15 14 C-10.05 9.38 -5.1 4.76 0 0 Z " fill="#0270B7" transform="translate(559,451)"/>
<path d="M0 0 C2.31 0.66 4.62 1.32 7 2 C6.01 2.495 6.01 2.495 5 3 C4.67 3.99 4.34 4.98 4 6 C4.33 6.33 4.66 6.66 5 7 C5 7.66 5 8.32 5 9 C4.34 9 3.68 9 3 9 C2.67 9.99 2.34 10.98 2 12 C0.00214565 7.8794254 -0.17835515 4.54805635 0 0 Z " fill="#2792CD" transform="translate(347,219)"/>
<path d="M0 0 C0.99386719 0.00902344 1.98773438 0.01804687 3.01171875 0.02734375 C4.15060547 0.04474609 4.15060547 0.04474609 5.3125 0.0625 C5.3125 0.3925 5.3125 0.7225 5.3125 1.0625 C4.28189453 1.24425781 4.28189453 1.24425781 3.23046875 1.4296875 C2.32941406 1.59726562 1.42835938 1.76484375 0.5 1.9375 C-0.39332031 2.09992188 -1.28664062 2.26234375 -2.20703125 2.4296875 C-4.91477846 2.97438449 -4.91477846 2.97438449 -7.6875 5.0625 C-10.375 5.1875 -10.375 5.1875 -12.6875 5.0625 C-8.57845007 0.67006731 -5.94216039 -0.06990777 0 0 Z " fill="#0B81C2" transform="translate(252.6875,348.9375)"/>
<path d="M0 0 C1 2 1 2 1.375 4 C1.88866379 6.37985297 1.88866379 6.37985297 5 8 C3.234375 8.64453125 3.234375 8.64453125 1 9 C-0.921875 8.07421875 -0.921875 8.07421875 -2.75 6.6875 C-3.67039062 6.01267578 -3.67039062 6.01267578 -4.609375 5.32421875 C-5.06828125 4.88722656 -5.5271875 4.45023438 -6 4 C-6 3.34 -6 2.68 -6 2 C-4.7934375 1.7834375 -4.7934375 1.7834375 -3.5625 1.5625 C-1.07896294 1.25864751 -1.07896294 1.25864751 0 0 Z " fill="#015692" transform="translate(357,597)"/>
<path d="M0 0 C0.33 0 0.66 0 1 0 C1.16808419 2.10405391 1.33441948 4.20824758 1.5 6.3125 C1.5928125 7.48425781 1.685625 8.65601563 1.78125 9.86328125 C2.08402839 14.20490714 1.84325585 18.35389491 1.5 22.6875 C1.4071875 23.86699219 1.314375 25.04648437 1.21875 26.26171875 C1.1465625 27.16535156 1.074375 28.06898438 1 29 C0.67 29 0.34 29 0 29 C0 19.43 0 9.86 0 0 Z " fill="#1697DE" transform="translate(391,270)"/>
<path d="M0 0 C0.66 0.33 1.32 0.66 2 1 C1.855625 1.556875 1.71125 2.11375 1.5625 2.6875 C0.08246474 7.42442992 0.08246474 7.42442992 1 12 C0.34 12 -0.32 12 -1 12 C-0.67 12.99 -0.34 13.98 0 15 C-0.66 15.66 -1.32 16.32 -2 17 C-2.05383848 14.54137599 -2.09359038 12.0839245 -2.125 9.625 C-2.14175781 8.92632812 -2.15851563 8.22765625 -2.17578125 7.5078125 C-2.19344267 5.67102514 -2.10303261 3.83398037 -2 2 C-1.34 1.34 -0.68 0.68 0 0 Z " fill="#0D75B2" transform="translate(394,334)"/>
<path d="M0 0 C1.65 1.65 3.3 3.3 5 5 C4.33333333 6.33333333 3.66666667 7.66666667 3 9 C2.67 9.721875 2.34 10.44375 2 11.1875 C1 13 1 13 -1 14 C-0.67 9.38 -0.34 4.76 0 0 Z " fill="#177FB9" transform="translate(392,287)"/>
<path d="M0 0 C11.52164009 -0.55353075 11.52164009 -0.55353075 17 3 C15 4 15 4 12.625 3.5 C9.96154796 2.9926758 8.53336705 3.15554432 6 4 C6 3.01 6 2.02 6 1 C4.02 1 2.04 1 0 1 C0 0.67 0 0.34 0 0 Z " fill="#1A91D1" transform="translate(308,283)"/>
<path d="M0 0 C0.66 0.33 1.32 0.66 2 1 C1.67 2.32 1.34 3.64 1 5 C1.99 5.33 2.98 5.66 4 6 C-0.75 9 -0.75 9 -3 9 C-3.33 9.66 -3.66 10.32 -4 11 C-3.48964169 6.6109185 -2.47785723 3.66291938 0 0 Z " fill="#319CD5" transform="translate(354,177)"/>
<path d="M0 0 C0.66 0.33 1.32 0.66 2 1 C3.1577506 4.47325181 3.06866652 7.36067448 3 11 C1.23537317 7.91190305 1 6.76687864 1 3 C-1.97 5.475 -1.97 5.475 -5 8 C-5.66 7.67 -6.32 7.34 -7 7 C-4.69 4.69 -2.38 2.38 0 0 Z " fill="#047BC3" transform="translate(585,426)"/>
<path d="M0 0 C0.33 0.99 0.66 1.98 1 3 C-0.43359375 5.04296875 -0.43359375 5.04296875 -2.4375 7.1875 C-3.09621094 7.90292969 -3.75492188 8.61835938 -4.43359375 9.35546875 C-5.20896484 10.16951172 -5.20896484 10.16951172 -6 11 C-6.99 10.67 -7.98 10.34 -9 10 C-8.34 9.34 -7.68 8.68 -7 8 C-6.3574765 5.93125966 -6.3574765 5.93125966 -6 4 C-4.35 4 -2.7 4 -1 4 C-0.67 2.68 -0.34 1.36 0 0 Z " fill="#0C81C5" transform="translate(516,314)"/>
<path d="M0 0 C0.66 0.33 1.32 0.66 2 1 C-1.85623679 5.82029598 -1.85623679 5.82029598 -5.11328125 6.33203125 C-7.07856214 6.3145776 -9.04166127 6.16596091 -11 6 C-8.88613536 3.88613536 -7.20732397 3.02991678 -4.5 1.8125 C-3.7059375 1.44769531 -2.911875 1.08289063 -2.09375 0.70703125 C-1.4028125 0.47371094 -0.711875 0.24039063 0 0 Z " fill="#1E91CF" transform="translate(427,239)"/>
<path d="M0 0 C-2.31 2.97 -4.62 5.94 -7 9 C-8 7 -8 7 -8 4 C-7 1 -7 1 -4.5625 -0.25 C-2 -1 -2 -1 0 0 Z " fill="#319DD8" transform="translate(385,184)"/>
<path d="M0 0 C2.79192205 -0.05380578 5.5828141 -0.09357669 8.375 -0.125 C9.1690625 -0.14175781 9.963125 -0.15851563 10.78125 -0.17578125 C12.85492015 -0.19335473 14.92883241 -0.10335168 17 0 C17.66 0.66 18.32 1.32 19 2 C17.35 2.66 15.7 3.32 14 4 C13.67 3.34 13.34 2.68 13 2 C9.95418731 1.53045739 9.95418731 1.53045739 6.4375 1.375 C5.23996094 1.30023438 4.04242188 1.22546875 2.80859375 1.1484375 C1.41833984 1.07496094 1.41833984 1.07496094 0 1 C0 0.67 0 0.34 0 0 Z " fill="#3AA6DF" transform="translate(405,148)"/>
<path d="M0 0 C1.28497537 3.85492611 0.4052209 5.40346836 -0.9375 9.1875 C-1.31777344 10.27417969 -1.69804687 11.36085938 -2.08984375 12.48046875 C-2.39019531 13.31191406 -2.69054687 14.14335938 -3 15 C-3.99 13.68 -4.98 12.36 -6 11 C-5.67 10.34 -5.34 9.68 -5 9 C-4.34 9.33 -3.68 9.66 -3 10 C-2.87625 9.278125 -2.7525 8.55625 -2.625 7.8125 C-2.0095069 5.04278106 -1.11555626 2.6029646 0 0 Z " fill="#026FB6" transform="translate(246,516)"/>
<path d="M0 0 C0.33 0 0.66 0 1 0 C1 1.65 1 3.3 1 5 C1.99 5.33 2.98 5.66 4 6 C3.814375 6.53625 3.62875 7.0725 3.4375 7.625 C2.88580676 10.61990614 3.39402556 13.03745829 4 16 C3.34 15.67 2.68 15.34 2 15 C0.38962091 9.81100071 -0.22541675 5.41000193 0 0 Z " fill="#0471B5" transform="translate(228,488)"/>
<path d="M0 0 C0.94875 0.04125 1.8975 0.0825 2.875 0.125 C2.545 1.445 2.215 2.765 1.875 4.125 C0.555 4.455 -0.765 4.785 -2.125 5.125 C-2.125 4.465 -2.125 3.805 -2.125 3.125 C-3.115 2.795 -4.105 2.465 -5.125 2.125 C-3.125 0.125 -3.125 0.125 0 0 Z " fill="#076AA5" transform="translate(256.125,453.875)"/>
<path d="M0 0 C4.39366678 0.50213335 6.87182342 1.87182342 10 5 C10.8125 7.75 10.8125 7.75 11 10 C10.443125 9.195625 9.88625 8.39125 9.3125 7.5625 C6.78135513 4.75771784 5.67420866 4.30618405 2 4 C2 3.01 2 2.02 2 1 C1.34 0.67 0.68 0.34 0 0 Z " fill="#0B81C5" transform="translate(347,359)"/>
<path d="M0 0 C3.86648272 1.04097612 7.49461443 2.03698408 11 4 C9.02 4.99 9.02 4.99 7 6 C5.83054208 5.19152271 4.66449539 4.37810888 3.5 3.5625 C2.8503125 3.11003906 2.200625 2.65757812 1.53125 2.19140625 C1.0259375 1.79824219 0.520625 1.40507812 0 1 C0 0.67 0 0.34 0 0 Z " fill="#1E80B8" transform="translate(370,257)"/>
<path d="M0 0 C0.66 0.33 1.32 0.66 2 1 C-1.465 3.97 -1.465 3.97 -5 7 C-5.66 6.67 -6.32 6.34 -7 6 C-7 4.68 -7 3.36 -7 2 C-6.21625 2.04125 -5.4325 2.0825 -4.625 2.125 C-1.83883881 2.28728734 -1.83883881 2.28728734 0 0 Z " fill="#1E90CE" transform="translate(451,253)"/>
<path d="M0 0 C0.99 0.66 1.98 1.32 3 2 C2.67 2.99 2.34 3.98 2 5 C-1 6 -1 6 -3.1875 5.0625 C-3.785625 4.711875 -4.38375 4.36125 -5 4 C-3.74458443 1.48916886 -2.49936512 1.12874554 0 0 Z " fill="#005590" transform="translate(467,594)"/>
<path d="M0 0 C0 3.66842255 -0.79029126 5.10451959 -3 8 C-5.6875 8.8125 -5.6875 8.8125 -8 9 C-7.04270084 7.87411986 -6.08412105 6.7493285 -5.125 5.625 C-4.59132813 4.99851562 -4.05765625 4.37203125 -3.5078125 3.7265625 C-2.38567993 2.44163349 -1.20628025 1.20628025 0 0 Z " fill="#0375BB" transform="translate(577,434)"/>
<path d="M0 0 C0.99 0.33 1.98 0.66 3 1 C2.01 2.98 1.02 4.96 0 7 C-1.32 5.68 -2.64 4.36 -4 3 C-2.1875 1.4375 -2.1875 1.4375 0 0 Z " fill="#0B7CBD" transform="translate(336,359)"/>
<path d="M0 0 C1.67542976 0.28604898 3.34385343 0.61781233 5 1 C5 2.32 5 3.64 5 5 C6.32 5.33 7.64 5.66 9 6 C6.25 6.3125 6.25 6.3125 3 6 C0.625 3.5 0.625 3.5 -1 1 C-0.67 0.67 -0.34 0.34 0 0 Z " fill="#1082C2" transform="translate(306,322)"/>
<path d="M0 0 C0.66 0 1.32 0 2 0 C1.8125 1.8125 1.8125 1.8125 1 4 C-1.5625 5.75 -1.5625 5.75 -4 7 C-4.625 5.125 -4.625 5.125 -5 3 C-4.34 2.34 -3.68 1.68 -3 1 C-2.01 1.33 -1.02 1.66 0 2 C0 1.34 0 0.68 0 0 Z " fill="#1279B4" transform="translate(509,297)"/>
<path d="M0 0 C2.4375 0.6875 2.4375 0.6875 5 2 C5.6875 4.5 5.6875 4.5 6 7 C6.66 7.66 7.32 8.32 8 9 C7.67 9.99 7.34 10.98 7 12 C5.82767315 10.3790787 4.6622923 8.75313167 3.5 7.125 C2.8503125 6.22007812 2.200625 5.31515625 1.53125 4.3828125 C0 2 0 2 0 0 Z " fill="#1E92D1" transform="translate(354,240)"/>
<path d="M0 0 C5.99291003 0.41330414 9.25036599 1.31903365 14 5 C11.50907189 6.24546405 10.58919267 5.7767578 8 5 C8 4.34 8 3.68 8 3 C5.36 2.34 2.72 1.68 0 1 C0 0.67 0 0.34 0 0 Z " fill="#0B0D15" transform="translate(415,176)"/>
<path d="M0 0 C1.98 0 3.96 0 6 0 C5.32829194 3.8063457 4.27253436 7.35206816 3 11 C1.9673198 8.21176345 1.95490707 7.1322726 2.9375 4.25 C3.288125 3.5075 3.63875 2.765 4 2 C3.01 2.33 2.02 2.66 1 3 C0.67 2.01 0.34 1.02 0 0 Z " fill="#2E9CD8" transform="translate(371,193)"/>
<path d="M0 0 C2.0625 0.4375 2.0625 0.4375 4 1 C4 2.65 4 4.3 4 6 C3.01 6.33 2.02 6.66 1 7 C0.34 5.02 -0.32 3.04 -1 1 C-0.67 0.67 -0.34 0.34 0 0 Z " fill="#3090C6" transform="translate(365,183)"/>
<path d="M0 0 C2.125 0.9375 2.125 0.9375 4 2 C4 2.66 4 3.32 4 4 C3.34 4 2.68 4 2 4 C1.67 4.99 1.34 5.98 1 7 C1 6.34 1 5.68 1 5 C0.34 5 -0.32 5 -1 5 C-1.33 3.68 -1.66 2.36 -2 1 C-1.34 0.67 -0.68 0.34 0 0 Z " fill="#005894" transform="translate(521,550)"/>
<path d="M0 0 C3.63 0 7.26 0 11 0 C10.34 1.98 9.68 3.96 9 6 C8.67 5.01 8.34 4.02 8 3 C6.12612784 2.19787372 6.12612784 2.19787372 3.9375 1.8125 C3.20402344 1.65394531 2.47054687 1.49539063 1.71484375 1.33203125 C1.14894531 1.22246094 0.58304688 1.11289062 0 1 C0 0.67 0 0.34 0 0 Z " fill="#100C11" transform="translate(540,487)"/>
<path d="M0 0 C0.33 0 0.66 0 1 0 C1.144375 0.7425 1.28875 1.485 1.4375 2.25 C1.90187492 4.52027739 2.41863569 6.75759479 3 9 C2.34 9 1.68 9 1 9 C0.67 9.66 0.34 10.32 0 11 C-0.84098656 6.98195309 -1.05404945 3.98196457 0 0 Z " fill="#0671B3" transform="translate(227,443)"/>
<path d="M0 0 C0.99 0.33 1.98 0.66 3 1 C-1.625 5.875 -1.625 5.875 -5 7 C-4.6189482 4.23737447 -4.16402868 3.15856106 -2.125 1.1875 C-1.42375 0.795625 -0.7225 0.40375 0 0 Z " fill="#0777B9" transform="translate(287,414)"/>
<path d="M0 0 C1.32 0 2.64 0 4 0 C4 1.65 4 3.3 4 5 C3.01 5.33 2.02 5.66 1 6 C-0.0625 4.125 -0.0625 4.125 -1 2 C-0.67 1.34 -0.34 0.68 0 0 Z " fill="#1E81BA" transform="translate(404,251)"/>
<path d="M0 0 C1.125 3.75 1.125 3.75 0 6 C0.66 6.33 1.32 6.66 2 7 C1.01 8.485 1.01 8.485 0 10 C0 9.34 0 8.68 0 8 C-0.66 8 -1.32 8 -2 8 C-1.125 1.125 -1.125 1.125 0 0 Z " fill="#2B98D2" transform="translate(349,189)"/>
<path d="M0 0 C0.66 0.33 1.32 0.66 2 1 C-0.31 3.97 -2.62 6.94 -5 10 C-5.33 9.34 -5.66 8.68 -6 8 C-4.02 5.36 -2.04 2.72 0 0 Z " fill="#0A0F17" transform="translate(384,184)"/>
<path d="M0 0 C1.32 0.66 2.64 1.32 4 2 C2.68 3.32 1.36 4.64 0 6 C-0.66 5.67 -1.32 5.34 -2 5 C-2 4.01 -2 3.02 -2 2 C-1.34 2 -0.68 2 0 2 C0 1.34 0 0.68 0 0 Z " fill="#005894" transform="translate(456,543)"/>
<path d="M0 0 C1.65 1.32 3.3 2.64 5 4 C4.278125 3.979375 3.55625 3.95875 2.8125 3.9375 C0.08074862 3.99820559 -2.34256091 4.39258535 -5 5 C-4.01 4.67 -3.02 4.34 -2 4 C-0.79117904 1.99983534 -0.79117904 1.99983534 0 0 Z " fill="#04619D" transform="translate(287,479)"/>
<path d="M0 0 C2.32472205 2.85306797 3.7508258 5.54074837 5 9 C3.0625 8.625 3.0625 8.625 1 8 C-0.35439668 5.29120665 -0.06501451 2.99066732 0 0 Z " fill="#2998D4" transform="translate(375,222)"/>
<path d="M0 0 C0.66 0.99 1.32 1.98 2 3 C-1.75 6 -1.75 6 -4 6 C-4 4.68 -4 3.36 -4 2 C-2.68 1.34 -1.36 0.68 0 0 Z " fill="#015593" transform="translate(431,623)"/>
<path d="M0 0 C3 1 3 1 6 3 C5.01 4.485 5.01 4.485 4 6 C3.67 5.34 3.34 4.68 3 4 C1.02111039 3.27306096 -0.97954558 2.60183749 -3 2 C-2.01 1.34 -1.02 0.68 0 0 Z " fill="#025994" transform="translate(327,544)"/>
<path d="M0 0 C0.99 0.99 1.98 1.98 3 3 C2.34 3 1.68 3 1 3 C1 5.64 1 8.28 1 11 C0.67 11 0.34 11 0 11 C0 8.69 0 6.38 0 4 C-0.66 3.67 -1.32 3.34 -2 3 C-1.34 2.01 -0.68 1.02 0 0 Z " fill="#0F73AC" transform="translate(424,317)"/>
<path d="M0 0 C0.5534764 2.07553648 1 3.84365964 1 6 C-0.32 6.33 -1.64 6.66 -3 7 C-2.25 2.25 -2.25 2.25 0 0 Z " fill="#288AC1" transform="translate(461,207)"/>
<path d="M0 0 C0 0.99 0 1.98 0 3 C-2.64 2.67 -5.28 2.34 -8 2 C-6.14210462 -1.71579076 -3.44525918 -1.06921837 0 0 Z " fill="#00538F" transform="translate(450,610)"/>
<path d="M0 0 C0.99 0 1.98 0 3 0 C2.67 1.65 2.34 3.3 2 5 C1.01 4.67 0.02 4.34 -1 4 C-0.67 2.68 -0.34 1.36 0 0 Z " fill="#005591" transform="translate(481,586)"/>
<path d="M0 0 C0.33 1.32 0.66 2.64 1 4 C0.34 4.66 -0.32 5.32 -1 6 C-2.66666667 6 -4.33333333 6 -6 6 C-4.02 4.02 -2.04 2.04 0 0 Z " fill="#0272BA" transform="translate(568,443)"/>
<path d="M0 0 C2.31 0 4.62 0 7 0 C4.63707344 2.52588702 3.33537489 3.88820837 0 5 C0 3.35 0 1.7 0 0 Z " fill="#1378B1" transform="translate(429,300)"/>
</svg>
